<?xml version="1.0" encoding="UTF-8" standalone="no"?>
<!-- Created with Inkscape (http://www.inkscape.org/) -->

<svg
   version="1.1"
   id="svg209"
   width="512"
   height="512"
   viewBox="0 0 512 512"
   sodipodi:docname="icon-instagram.svg"
   inkscape:version="1.2 (dc2aedaf03, 2022-05-15)"
   xmlns:inkscape="http://www.inkscape.org/namespaces/inkscape"
   xmlns:sodipodi="http://sodipodi.sourceforge.net/DTD/sodipodi-0.dtd"
   xmlns="http://www.w3.org/2000/svg"
   xmlns:svg="http://www.w3.org/2000/svg">
  <defs
     id="defs213" />
  <sodipodi:namedview
     id="namedview211"
     pagecolor="#ffffff"
     bordercolor="#666666"
     borderopacity="1.0"
     inkscape:showpageshadow="2"
     inkscape:pageopacity="0.0"
     inkscape:pagecheckerboard="0"
     inkscape:deskcolor="#d1d1d1"
     showgrid="false"
     inkscape:lockguides="true"
     inkscape:zoom="0.81933594"
     inkscape:cx="166.59833"
     inkscape:cy="269.73063"
     inkscape:window-width="1920"
     inkscape:window-height="1011"
     inkscape:window-x="0"
     inkscape:window-y="32"
     inkscape:window-maximized="1"
     inkscape:current-layer="g215" />
  <g
     inkscape:groupmode="layer"
     inkscape:label="Image"
     id="g215">
    <path
       style="fill:#000000"
       d="m 86.551118,510.75518 c -13.51253,-1.92872 -30.24745,-8.62635 -43,-17.20942 -7.69527,-5.17928 -20.011,-17.49501 -25.19028,-25.19028 -8.9691705,-13.32622 -15.1793505,-29.13823 -17.2274605,-43.8636 -1.51117,-10.86489 -1.51117,-326.407913 0,-337.272796 4.5526,-32.732016 25.3706505,-61.510949 55.4177395,-76.609681 9.32111,-4.6838768 21.40159,-8.404426 31.63549,-9.74310747 5.84722,-0.7648658 58.021123,-1.0036526 173.364513,-0.7934457 l 165,0.3007033 8.5,2.33835657 c 29.37157,8.0801413 52.94088,27.1656823 66.24608,53.6435723 4.54036,9.035499 8.30784,21.058044 9.67167,30.863602 1.51116,10.864883 1.51116,326.407906 0,337.272796 -4.55261,32.73201 -25.37065,61.51095 -55.41775,76.60968 -9.0355,4.54036 -21.05804,8.30784 -30.8636,9.67167 -9.46536,1.31651 -328.906002,1.29946 -338.136402,-0.0181 z M 431.55112,476.63107 c 11.23524,-3.82618 19.83099,-9.13725 27.98467,-17.29092 8.15367,-8.15368 13.46474,-16.74943 17.29092,-27.98467 l 2.72441,-8 0.2785,-164 C 480.14105,75.967009 480.53078,86.762583 473.04265,71.355482 465.73044,56.310354 455.58246,46.164233 440.55112,38.869903 c -15.28138,-7.415664 -4.72749,-7.014421 -184.5,-7.014421 -179.772503,0 -169.218622,-0.401243 -184.500002,7.014421 -15.03558,7.296387 -25.18919,17.449997 -32.48558,32.485579 -7.41566,15.281376 -7.01442,4.727493 -7.01442,184.499998 0,179.77251 -0.40124,169.21862 7.01442,184.5 7.294339,15.03135 17.44047,25.17934 32.48558,32.49151 15.01533,7.2977 3.41544,6.88298 187.000002,6.68575 l 165,-0.17726 z m -186.5,-90.41344 c -57.8065,-5.38934 -105.11555,-47.62792 -117.1116,-104.55986 -3.07154,-14.5772 -3.08612,-37.17877 -0.0333,-51.53596 11.23542,-52.83838 51.57646,-92.42781 104.87495,-102.92096 12.94175,-2.54791 35.653,-2.30727 49.00357,0.51923 52.78404,11.17512 92.57104,51.7226 102.89871,104.8655 2.29692,11.81924 2.29692,34.72056 0,46.5398 -10.27406,52.86703 -50.71123,94.20129 -102.39871,104.6704 -9.74159,1.97313 -28.77067,3.21087 -37.23367,2.42185 z m 35.18489,-34.75714 c 28.99752,-7.35583 53.59953,-28.00385 66.02937,-55.41727 5.79454,-12.7796 8.0413,-23.97429 8.0656,-40.18774 0.0186,-12.39106 -0.34663,-15.88339 -2.51095,-24.01148 -9.69024,-36.39149 -36.8537,-63.08441 -73.46193,-72.18938 -13.01181,-3.23621 -33.16778,-3.04343 -46.31846,0.44301 -18.20384,4.82612 -32.46477,13.00051 -45.60532,26.14105 -13.1335,13.1335 -21.30169,27.37925 -26.14907,45.60532 -2.1526,8.09373 -2.52966,11.6728 -2.52966,24.01148 0,12.33868 0.37706,15.91775 2.52966,24.01148 9.24225,34.7507 35.62237,61.82228 69.22705,71.04159 16.51697,4.53136 34.27463,4.72459 50.72371,0.55194 z M 382.05112,155.48164 c -11.01409,-3.03219 -18.73409,-9.30931 -23.57498,-19.16875 -2.64244,-5.38188 -2.92502,-6.92551 -2.92502,-15.97844 0,-9.29102 0.23746,-10.50337 3.25968,-16.64238 6.01512,-12.21843 16.49581,-18.887806 30.87323,-19.646134 12.52984,-0.66088 21.8063,3.018898 29.73533,11.795381 6.61956,7.327063 8.13176,11.885773 8.13176,24.514163 0,10.74512 -0.0831,11.15061 -3.58436,17.5 -8.1504,14.78022 -25.59975,22.11794 -41.91564,17.62616 z m 13.17126,-32.28115 c 3.45878,-3.13015 1.63899,-7.34501 -3.17126,-7.34501 -3.1445,0 -5,1.66995 -5,4.5 0,4.33366 4.71308,5.97462 8.17126,2.84501 z"
       id="path219" />
  </g>
</svg>
