<?xml version="1.0" encoding="UTF-8" standalone="no"?>
<!-- Created with Inkscape (http://www.inkscape.org/) -->

<svg
   version="1.1"
   id="svg2"
   width="546.1333"
   height="546.1333"
   viewBox="0 0 546.1333 546.1333"
   sodipodi:docname="icon-telegram.svg"
   inkscape:version="1.2 (dc2aedaf03, 2022-05-15)"
   xmlns:inkscape="http://www.inkscape.org/namespaces/inkscape"
   xmlns:sodipodi="http://sodipodi.sourceforge.net/DTD/sodipodi-0.dtd"
   xmlns="http://www.w3.org/2000/svg"
   xmlns:svg="http://www.w3.org/2000/svg">
  <defs
     id="defs6" />
  <sodipodi:namedview
     id="namedview4"
     pagecolor="#ffffff"
     bordercolor="#666666"
     borderopacity="1.0"
     inkscape:showpageshadow="2"
     inkscape:pageopacity="0.0"
     inkscape:pagecheckerboard="0"
     inkscape:deskcolor="#d1d1d1"
     showgrid="false"
     inkscape:zoom="1.0862963"
     inkscape:cx="267.42243"
     inkscape:cy="266.04159"
     inkscape:window-width="1920"
     inkscape:window-height="1011"
     inkscape:window-x="0"
     inkscape:window-y="32"
     inkscape:window-maximized="1"
     inkscape:current-layer="g8" />
  <g
     inkscape:groupmode="layer"
     inkscape:label="Image"
     id="g8">
    <path
       style="fill:#000000;stroke-width:1.06667"
       d="m 406.75772,511.92478 c -6.41018,-2.28657 -9.10436,-4.35897 -62.93575,-48.41119 l -50.98623,-41.72391 -45.01376,33.78189 c -24.75758,18.58003 -46.93377,34.88081 -49.28044,36.22393 -8.34383,4.77565 -17.75546,2.17647 -22.01397,-6.07952 -1.06308,-2.061 -10.11079,-41.62697 -20.10605,-87.92437 -9.99524,-46.29739 -18.36304,-84.36697 -18.59511,-84.59903 -0.23208,-0.23207 -26.9861,-12.06228 -59.453404,-26.28934 -32.4673,-14.22706 -60.471459,-26.63165 -62.231459,-27.56576 -4.87521,-2.58749 -10.8202505,-9.27196 -13.5252905,-15.20754 -3.67254,-8.05855 -3.45950005,-19.32789 0.51852,-27.42874 4.00512,-8.15602 10.6725205,-13.84344 20.2532705,-17.27644 4.227759,-1.5149 114.246833,-37.87801 244.486823,-80.80688 165.68815,-54.613071 238.61939,-78.194796 242.85855,-78.526341 17.04785,-1.333314 32.83264,12.064382 34.60026,29.367734 0.56412,5.522199 -4.19915,26.664509 -47.52321,210.937327 -26.48259,112.64 -48.94674,207.41264 -49.92033,210.60588 -2.48044,8.13549 -12.31621,18.08937 -20.40443,20.64948 -6.81232,2.15624 -15.14067,2.26587 -20.72799,0.27282 z m 10.98381,-30.86462 c 0,-0.2217 21.60407,-92.21762 48.00905,-204.43538 C 492.15556,164.40703 513.5489,72.381774 513.29134,72.124211 512.68494,71.517808 33.648716,229.39612 32.446106,230.59872 c -0.5032,0.5032 25.87195,12.624 58.94159,27.08682 L 151.24002,283.86165 276.22411,214.3958 401.2082,144.92994 h 6.58073 c 5.54728,0 7.02892,0.41878 9.43468,2.66667 5.88177,5.4958 7.48899,12.93889 4.17697,19.34366 -0.92087,1.78073 -39.58062,42.85714 -85.91059,91.28088 -46.32996,48.42374 -84.09653,88.18033 -83.9257,88.34797 2.64302,2.59387 164.80857,134.8336 165.37724,134.85876 0.44,0.0194 0.8,-0.14602 0.8,-0.36772 z M 246.33622,416.66002 c 11.03373,-8.26836 19.98654,-15.43014 19.89513,-15.91507 -0.28752,-1.52524 -29.25774,-24.76508 -29.92415,-24.00509 -0.66787,0.76164 -16.96566,57.69338 -16.96566,59.26474 0,0.50153 1.56,-0.26332 3.46667,-1.69966 1.90666,-1.43635 12.49427,-9.37656 23.52801,-17.64492 z m -43.01379,-41.72313 c 5.24665,-18.40284 10.22184,-34.48284 11.05598,-35.73334 0.83415,-1.25049 25.09209,-26.90373 53.90654,-57.00719 28.81445,-30.10348 52.38992,-54.97181 52.38992,-55.26295 0,-0.29116 -0.36,-0.32516 -0.8,-0.0755 -0.44,0.24961 -34.31963,19.06049 -75.28805,41.80198 -57.07726,31.68345 -74.38525,41.75196 -74.04824,43.07578 0.2419,0.95021 5.20151,23.92271 11.02138,51.04999 6.74041,31.41807 10.87952,48.64873 11.40234,47.46667 0.45142,-1.02062 5.11348,-16.91256 10.36013,-35.31539 z"
       id="path170" />
  </g>
</svg>
